<?xml version="1.0" encoding="UTF-8"?><svg id="Layer_1" xmlns="http://www.w3.org/2000/svg" viewBox="0 0 442 140.54"><defs><style>.cls-1{fill:#5c876d;}</style></defs><path class="cls-1" d="M158,10.53l21.26,5.24c21.97,8.22,36.42,26.68,43.58,48.46.22,1.21-.57,1.66-1.43,2.21-2.66,1.7-15.48,4.63-19.04,4.97-43.1,4.11-44-33.42-65.83-58.91-2.32-2.71-8.76-4.22-1.35-7.26,16.03-6.6,43.7-6.81,60.04-1.42,33.71,11.12,44.21,44,38.27,76.74-2.09-30.73-14.76-56.83-45.72-66.29-2.26-.69-13.84-3.72-15.28-3.72h-14.5Z"/><path class="cls-1" d="M54.34,92.88c29.86-34.32,75.15,19.23,38.35,42.85-28.27,18.15-58.93-19.2-38.35-42.85ZM64.34,98.87c-3.28,3.29-4.72,9.65-4.4,14.2,1.57,22.15,37.36,20.54,33.97-4.96-1.83-13.7-20.48-18.37-29.57-9.25Z"/><path class="cls-1" d="M13,82.53v22h16.5l1.5-1.5v-20.5h13v56h-13v-22c-5.27-1.05-13.33-2.46-18,.5v21.5H0v-56h13Z"/><path class="cls-1" d="M99,138.53l24.96-46.55c.4-2.14-.31-1.13-1.4-1.47-2.75-.85-5.44-.61-8.04-1-1.35-.2-3.26-.56-1.51-1.97l14-1.01-3.5-4-2.03,3.07-7.87-1.1-1.57,2.55-1.93-1.01c2.24-2.93-2.51-2.26-1.08-6.51l4,1.01-1.03,2.48,2.01.51,3-7.99-4.98,1.99c-1.41-4.22,3.73-3.45,4.06-4.61l-.06-4.39c3.07,2.17.6,5.16,5.99,4.01v3.99s-2.5-1.98-2.5-1.98l-1.51,2.49.46,1.56c2.42.26,6.53,5.75,4.73,1.11,4.13-1.15,1.75-6.29,6.81-7.17v4.01s-1.98-1.02-1.98-1.02c-.47,2.65.45,3.36,2.8,4.18l.07,6.2,10.11,3.13-7.98,1.99,24.77,45.02c-.08,3.1-10.02,2.91-12.29,2.49-3.81-.71-3.34-6.88-6.16-7.84l-21.72-.22-3.62,8.06h-15ZM129.99,110.54c-1.96-1.49-6.87,9.12-5.98,9.99h9.99s-4.01-9.99-4.01-9.99Z"/><path class="cls-1" d="M442,138.53h-16l-3.66-7.84-22.44.46-2.9,7.38h-15l29.5-54.98,30.5,54.98ZM417,120.53c.6-.54-4.95-11.79-5.98-10.99-.72,3.94-4.42,6.72-4.01,10.99h9.99Z"/><polygon class="cls-1" points="213 82.53 213 111.03 190.49 120.49 176 110.53 176 127.53 163 133.53 163 83.53 200 111.53 200 82.53 213 82.53"/><path class="cls-1" d="M361,138.53c-4.23-.55-11.97,2.29-10.51-4.01-10.17,4.44-21.66,6.55-31.82.83-11.36-6.39-18.27-22.08-12.73-34.38l12.05-.44c-9.83,22.82,17.44,37.72,30.99,17.47.27-2.03-.08-1.3-1.47-1.48-2.05-.27-11.12.41-11.52,0v-11.01h25.01v33Z"/><path class="cls-1" d="M318,49.55c.1,2.55-2.67,3.08-4.25,5.23-12.26,16.68-14.37,37.98-42.73,25.27,4.79-13.97,15.61-25.94,30.98-27.53.25-1.71-2.37-1.06-3.47-.97-10.33.83-22.89,6.69-27.7,16.31l-5.81,15.67c-.01-4.49.32-9.85,1.26-14.22,5.04-23.39,32.29-26.96,51.72-19.76Z"/><path class="cls-1" d="M276,138.53h-11.01s0-4.01,0-4.01c-2.82-.37-4.28,1.97-6.75,2.76-16.82,5.35-30.73-1.67-38.14-17.27l10.29-4.36c7.74,14.85,23.76,16,33.58,2.38.05-2.45-10.87-1.25-12.98-1.5.21-2.25-.82-5.99.99-7.52,2.11-1.79,21.37-5.53,24.01-1.99v31.5Z"/><path class="cls-1" d="M379,82.53v54.5c-3.18,3-8.85.92-13,1.5v-56h13Z"/><path class="cls-1" d="M230.78,106.31l-11.77,3.22c-.43-23.92,28.92-37.21,46.98-21.5l-7.69,7.37c-11.86-5.39-23.84-2.31-27.51,10.9Z"/><path class="cls-1" d="M350.87,86.65c1.51,2.32-6.15,8.57-7.58,8.71-2.82.27-7.08-2.88-10.81-2.84-5.39.05-9.06,4.44-12,5-3.86.74-8.54-1.15-12.48-1-.8-.69,5.18-7.69,6.05-8.44,10.3-8.87,25.71-8.58,36.81-1.44Z"/><path class="cls-1" d="M138.01,73.54l4.04.6-.06,3.4c-7.52-4.98-4.44,2.52-1.97,5.99l1.99-.51-1.03-2.48,4-1.01c1.16,4.21-3.15,3.8-2,8l-11-1.99.15-5.87c5.35.07,5.31-6.52-.14-4.13v-3s3.99,1,3.99,1l2-5,.02,5.01Z"/><path class="cls-1" d="M213,122.53v15l-12-8.51c-.65-2.61,9.8-5.83,12-6.49Z"/></svg>